<svg width="25" height="24" viewBox="0 0 25 24" fill="none" xmlns="http://www.w3.org/2000/svg">
<g clip-path="url(#clip0_2315_16684)">
<path d="M23.9693 5.28067L18.9693 0.280674C18.7807 0.098516 18.5281 -0.00227842 18.2659 0C18.0037 0.00227842 17.7529 0.107447 17.5675 0.292855C17.3821 0.478263 17.2769 0.729076 17.2746 0.991273C17.2723 1.25347 17.3731 1.50607 17.5553 1.69467L19.3483 3.48767L17.8623 4.97067C16.9019 4.26549 15.7212 3.92645 14.533 4.01464C13.3448 4.10282 12.2271 4.61244 11.3813 5.45167L5.31229 11.5237C4.66037 12.1721 4.14351 12.9434 3.79163 13.7929C3.43975 14.6423 3.25983 15.5532 3.26229 16.4727V19.5727L0.555289 22.2807C0.459778 22.3729 0.383596 22.4833 0.331187 22.6053C0.278778 22.7273 0.251192 22.8585 0.250038 22.9913C0.248884 23.124 0.274186 23.2557 0.324467 23.3786C0.374748 23.5015 0.449001 23.6132 0.542894 23.7071C0.636786 23.801 0.748438 23.8752 0.871334 23.9255C0.994231 23.9758 1.12591 24.0011 1.25869 23.9999C1.39147 23.9988 1.52269 23.9712 1.64469 23.9188C1.7667 23.8664 1.87704 23.7902 1.96929 23.6947L4.67629 20.9877H7.77629C8.69577 20.9901 9.60661 20.8102 10.4561 20.4583C11.3056 20.1064 12.0769 19.5896 12.7253 18.9377L18.7973 12.8657C19.6372 12.0209 20.1474 10.9037 20.2358 9.71577C20.3242 8.52783 19.9849 7.34742 19.2793 6.38767L20.7623 4.90167L22.5553 6.69467C22.7439 6.87683 22.9965 6.97762 23.2587 6.97535C23.5209 6.97307 23.7717 6.8679 23.9571 6.68249C24.1425 6.49708 24.2477 6.24627 24.25 5.98407C24.2522 5.72188 24.1514 5.46927 23.9693 5.28067Z" fill="#4F8FC0"/>
<path d="M5.34497 15.509L6.21797 13.554L7.95897 15.295C8.05448 15.3872 8.13066 15.4976 8.18307 15.6196C8.23548 15.7416 8.26307 15.8728 8.26422 16.0056C8.26537 16.1384 8.24007 16.2701 8.18979 16.393C8.13951 16.5158 8.06526 16.6275 7.97136 16.7214C7.87747 16.8153 7.76582 16.8895 7.64292 16.9398C7.52002 16.9901 7.38834 17.0154 7.25556 17.0142C7.12278 17.0131 6.99156 16.9855 6.86956 16.9331C6.74756 16.8807 6.63721 16.8045 6.54497 16.709L5.34497 15.509Z" fill="white"/>
<path d="M9.54297 13.707L7.74997 11.914L9.16397 10.5L10.957 12.293C11.1391 12.4816 11.2399 12.7342 11.2376 12.9964C11.2354 13.2586 11.1302 13.5094 10.9448 13.6948C10.7594 13.8802 10.5086 13.9854 10.2464 13.9877C9.98417 13.9899 9.73157 13.8892 9.54297 13.707Z" fill="white"/>
<path d="M12.543 10.707L10.75 8.914L12.164 7.5L13.957 9.293C14.044 9.35498 14.2121 9.56185 14.235 9.91494C14.237 9.94195 14.2379 9.96912 14.2376 9.9964C14.2354 10.2528 14.1348 10.4983 13.957 10.6824C13.899 10.7616 13.7286 10.9068 13.4542 10.964C13.3864 10.979 13.3168 10.9871 13.2464 10.9877C12.9842 10.9899 12.7316 10.8892 12.543 10.707Z" fill="white"/>
</g>
<defs>
<clipPath id="clip0_2315_16684">
<rect width="24" height="24" fill="white" transform="translate(0.25)"/>
</clipPath>
</defs>
</svg>
